<svg xmlns="http://www.w3.org/2000/svg" version="1.1" xmlns:xlink="http://www.w3.org/1999/xlink" xmlns:svgjs="http://svgjs.dev/svgjs" width="2000" height="601" viewBox="0 0 2000 601"><g transform="matrix(1,0,0,1,-1.2112696095522324,-1.1361333690561537)"><svg viewBox="0 0 396 119" data-background-color="#edffde" preserveAspectRatio="xMidYMid meet" height="601" width="2000" xmlns="http://www.w3.org/2000/svg" xmlns:xlink="http://www.w3.org/1999/xlink"><g id="tight-bounds" transform="matrix(1,0,0,1,0.24008861730862918,0.22495818788300426)"><svg viewBox="0 0 395.52 118.55008362423396" height="118.55008362423396" width="395.52"><g><svg viewBox="0 0 395.52 118.55008362423396" height="118.55008362423396" width="395.52"><g><svg viewBox="0 0 395.52 118.55008362423396" height="118.55008362423396" width="395.52"><g id="textblocktransform"><svg viewBox="0 0 395.52 118.55008362423396" height="118.55008362423396" width="395.52" id="textblock"><g><svg viewBox="0 0 395.52 118.55008362423396" height="118.55008362423396" width="395.52"><path d="M394.594 25.427C392.735 13.121 387.435 9.7 387.435 9.7 371.165-2.974 350.86-0.242 332.619 1.579 300.414 1.653 268.339 4.36 236.208 5.812 168.767 6.033 100.749 2.391 33.643 11.374 27.339 14.13-6.54 11.915 1.121 27.002 3.129 33.278 10.456 40.242 10.232 46.001 11.236 47.01 12.631 44.697 13.226 46.149 15.309 50.062 18.711 48.216 21.501 50.53 17.614 56.707 20.403 61.851 23.062 67.241 18.377 68.643 12.371 67.979 9.675 72.63 9.396 76.002 7.89 75.362 6.235 75.215 5.026 75.116 2.59 75.485 2.999 76.544 4.394 80.161-1.594 82.253 2.162 85.797-0.422 89.637 3.948 92.959 3.353 97.118 3.278 97.955 3.687 98.669 4.338 98.866 7.22 99.924 3.018 101.991 3.464 104.231 33.029 119.539 65.104 108.956 95.394 115.995 103.259 111.073 97.346 117.742 100.489 116.709 102.943 115.503 104.728 120.499 107.499 117.668 107.927 116.856 107.276 114.937 108.8 115.306 109.6 115.503 110.307 115.453 110.418 114.321 110.586 112.623 109.117 113.681 108.726 112.795 112.947 108.316 111.906 118.973 115.866 118.53 115.68 117.225 114.528 115.355 116.889 115.601 119.232 113.731 119.306 112.18 121.389 116.389 121.463 117.299 121.835 117.939 122.43 118.382 128.938 113.805 135.409 120.006 142.233 117.939 146.417 115.675 150.433 119.17 154.672 118.308 156.16 117.619 157.666 116.389 159.098 118.456 176.632 118.899 195.319 117.053 211.943 118.53 256.364 115.773 303.836 119.662 350.674 116.019 361.719 114.617 373.192 112.623 383.958 111.023 383.958 111.023 392.679 106.643 392.679 86.954S394.538 69.726 394.817 54.049C395.096 38.372 396.398 37.732 394.538 25.427Z" opacity="1" fill="#bcec7e" data-fill-palette-color="tertiary"></path><g transform="matrix(1,0,0,1,55.76832,26.230666666666668)"><svg width="283.98335999999995" viewBox="2.75 -49.3 214.84 50" height="66.08875029090062" data-palette-color="#000000"><path d="M19.1 0.7L19.1 0.7Q14 0.7 10.33-1.55 6.65-3.8 4.7-7.85 2.75-11.9 2.75-17.35L2.75-17.35Q2.75-23.15 4.88-27.53 7-31.9 10.8-34.35 14.6-36.8 19.5-36.8L19.5-36.8Q23.4-36.8 26.63-35.23 29.85-33.65 31.85-30.85L31.85-30.85Q31.6-29.95 30.58-29 29.55-28.05 28.55-27.75L28.55-27.75Q26.75-30.1 24.45-31.2 22.15-32.3 19.5-32.3L19.5-32.3Q15.95-32.3 13.25-30.45 10.55-28.6 9.05-25.3 7.55-22 7.55-17.6L7.55-17.6Q7.55-13.45 8.93-10.35 10.3-7.25 12.98-5.53 15.65-3.8 19.5-3.8L19.5-3.8Q22.85-3.8 25.3-5.15 27.75-6.5 29.75-8.95L29.75-8.95Q30.7-8.65 31.7-7.85 32.7-7.05 33.1-6.25L33.1-6.25Q30.8-2.85 27.18-1.07 23.55 0.7 19.1 0.7ZM69.05 0.7L69.05 0.7Q64.25 0.7 60.6-1.68 56.95-4.05 54.9-8.28 52.85-12.5 52.85-18.05L52.85-18.05Q52.85-23.6 54.9-27.83 56.95-32.05 60.6-34.43 64.25-36.8 69.05-36.8L69.05-36.8Q73.84-36.8 77.47-34.43 81.09-32.05 83.12-27.85 85.15-23.65 85.15-18.05L85.15-18.05Q85.15-12.5 83.12-8.28 81.09-4.05 77.47-1.68 73.84 0.7 69.05 0.7ZM69-3.8L69-3.8Q72.45-3.8 75-5.58 77.55-7.35 78.95-10.58 80.34-13.8 80.34-18.05L80.34-18.05Q80.34-22.35 78.95-25.55 77.55-28.75 75-30.53 72.45-32.3 69.05-32.3L69.05-32.3Q65.65-32.3 63.07-30.53 60.5-28.75 59.07-25.55 57.65-22.35 57.65-18.05L57.65-18.05Q57.65-13.8 59.05-10.58 60.45-7.35 63.02-5.58 65.59-3.8 69-3.8ZM87.49 0.7L87.49 0.7Q86.84 0.7 86.44 0.1 86.04-0.5 86.04-1.45L86.04-1.45Q86.04-2.45 86.52-3.03 86.99-3.6 87.79-3.6L87.79-3.6Q89.59-3.6 91.69-5.05 93.79-6.5 95.74-9.05L95.74-9.05Q94.94-12.7 94.94-19.25L94.94-19.25 94.94-33.15Q94.94-37.3 95.22-39.85 95.49-42.4 96.14-44.1L96.14-44.1Q97.09-46.6 98.89-47.95 100.69-49.3 103.14-49.3L103.14-49.3Q106.54-49.3 108.59-45.98 110.64-42.65 110.64-37.05L110.64-37.05Q110.64-32.3 109.47-27.25 108.29-22.2 106.04-17.28 103.79-12.35 100.59-8L100.59-8Q100.74-7.65 100.89-7.35L100.89-7.35Q101.94-5.5 103.37-4.63 104.79-3.75 106.89-3.75L106.89-3.75Q109.14-3.75 110.84-5 112.54-6.25 113.49-8.47 114.44-10.7 114.44-13.6L114.44-13.6Q114.44-14.65 114.29-15.7L114.29-15.7Q111.14-17.7 110.14-19.25L110.14-19.25Q110.49-20.25 111.27-21.18 112.04-22.1 112.99-22.68 113.94-23.25 114.79-23.25L114.79-23.25Q115.94-23.25 116.89-22.03 117.84-20.8 118.42-18.78 118.99-16.75 118.99-14.3L118.99-14.3Q118.99-9.8 117.52-6.48 116.04-3.15 113.32-1.33 110.59 0.5 106.89 0.5L106.89 0.5Q100.34 0.5 97.44-4.4L97.44-4.4Q92.84 0.7 87.49 0.7ZM99.14-33.75L99.14-20.25Q99.14-16.2 99.39-13.6L99.39-13.6Q102.84-19.5 104.62-25.55 106.39-31.6 106.39-37.1L106.39-37.1Q106.39-45.15 102.89-45.15L102.89-45.15Q100.84-45.15 99.94-42.4L99.94-42.4Q99.14-39.95 99.14-33.75L99.14-33.75ZM121.99-3.6L121.99-3.6Q123.04-3.6 124.24-4.25 125.44-4.9 126.49-6.25L126.49-6.25Q127.94-8.25 128.52-10.95 129.09-13.65 129.09-16.2L129.09-16.2 129.09-23.6Q129.54-23.75 130.14-23.85 130.74-23.95 131.39-23.95L131.39-23.95Q132.54-23.95 133.64-23.6L133.64-23.6 133.64-12.05Q133.64-7.7 135.04-5.73 136.44-3.75 139.44-3.75L139.44-3.75Q146.59-3.75 146.59-14.2L146.59-14.2 146.59-23.6Q146.99-23.75 147.59-23.85 148.19-23.95 148.84-23.95L148.84-23.95Q150.04-23.95 151.14-23.6L151.14-23.6 151.14-9.2Q151.14-6.55 151.97-5.08 152.79-3.6 154.74-3.6L154.74-3.6Q155.59-3.6 155.89-2.9 156.19-2.2 156.19-1.4L156.19-1.4Q156.19-0.6 155.77 0.05 155.34 0.7 154.39 0.7L154.39 0.7Q149.59 0.7 147.89-3.5L147.89-3.5Q146.49-1.45 144.29-0.38 142.09 0.7 139.09 0.7L139.09 0.7Q132.74 0.7 130.39-4.7L130.39-4.7Q129.59-3.25 128.59-2.25L128.59-2.25Q127.24-0.9 125.47-0.1 123.69 0.7 121.64 0.7L121.64 0.7Q120.94 0.7 120.57 0.03 120.19-0.65 120.19-1.45L120.19-1.45Q120.19-2.3 120.62-2.95 121.04-3.6 121.99-3.6ZM154.39 0.7L154.39 0.7Q153.74 0.7 153.34 0.1 152.94-0.5 152.94-1.45L152.94-1.45Q152.94-3.6 154.74-3.6L154.74-3.6Q156.94-3.6 158.66-5.43 160.39-7.25 161.41-10.4 162.44-13.55 162.44-17.4L162.44-17.4Q162.44-18.3 162.34-19.05 162.24-19.8 162.09-20.3L162.09-20.3Q161.64-20.75 161.11-21.75 160.59-22.75 160.21-23.88 159.84-25 159.84-25.7L159.84-25.7Q160.44-26.65 161.76-27.18 163.09-27.7 164.69-27.45L164.69-27.45Q165.64-25.7 166.24-23.05L166.24-23.05Q167.74-23.1 170.29-23.7L170.29-23.7Q171.89-24.05 172.86-24.18 173.84-24.3 174.54-24.3L174.54-24.3Q177.24-24.3 178.79-22.28 180.34-20.25 180.34-16.8L180.34-16.8 180.34-8.75Q180.34-6 181.06-4.8 181.79-3.6 183.39-3.6L183.39-3.6Q184.09-3.6 184.46-3 184.84-2.4 184.84-1.4L184.84-1.4Q184.84-0.6 184.41 0.05 183.99 0.7 183.04 0.7L183.04 0.7Q175.79 0.7 175.79-8.2L175.79-8.2 175.79-15.95Q175.79-18.2 175.29-19.1 174.79-20 173.49-20L173.49-20Q173.04-20 172.49-19.9 171.94-19.8 170.54-19.5L170.54-19.5Q168.09-19 166.84-18.9L166.84-18.9Q166.89-18.1 166.89-17.3L166.89-17.3Q166.89-11.9 165.34-7.85 163.79-3.8 160.96-1.55 158.14 0.7 154.39 0.7ZM183.39-3.6L183.39-3.6Q184.44-3.6 185.64-4.25 186.84-4.9 187.89-6.25L187.89-6.25Q189.34-8.25 189.91-10.95 190.49-13.65 190.49-16.2L190.49-16.2 190.49-23.6Q190.94-23.75 191.54-23.85 192.14-23.95 192.79-23.95L192.79-23.95Q193.94-23.95 195.04-23.6L195.04-23.6 195.04-12.05Q195.04-7.7 196.44-5.73 197.84-3.75 200.84-3.75L200.84-3.75Q207.99-3.75 207.99-14.2L207.99-14.2 207.99-23.6Q208.39-23.75 208.99-23.85 209.59-23.95 210.24-23.95L210.24-23.95Q211.44-23.95 212.54-23.6L212.54-23.6 212.54-9.2Q212.54-6.55 213.36-5.08 214.19-3.6 216.14-3.6L216.14-3.6Q216.99-3.6 217.29-2.9 217.59-2.2 217.59-1.4L217.59-1.4Q217.59-0.6 217.16 0.05 216.74 0.7 215.79 0.7L215.79 0.7Q210.99 0.7 209.29-3.5L209.29-3.5Q207.89-1.45 205.69-0.38 203.49 0.7 200.49 0.7L200.49 0.7Q194.14 0.7 191.79-4.7L191.79-4.7Q190.99-3.25 189.99-2.25L189.99-2.25Q188.64-0.9 186.86-0.1 185.09 0.7 183.04 0.7L183.04 0.7Q182.34 0.7 181.96 0.03 181.59-0.65 181.59-1.45L181.59-1.45Q181.59-2.3 182.01-2.95 182.44-3.6 183.39-3.6Z" opacity="1" transform="matrix(1,0,0,1,0,0)" fill="#000000" class="wordmark-text-0" data-fill-palette-color="quaternary" id="text-0"></path></svg></g></svg></g></svg></g></svg></g><g></g></svg></g><defs></defs></svg><rect width="395.52" height="118.55008362423396" fill="none" stroke="none" visibility="hidden"></rect></g></svg></g></svg>